# xmcd
#
# Track frame offsets:
#	150
#	20098
#	39861
#	51789
#	69287
#	84670
#	104483
#	122826
#	149219
#	171552
#	198375
#	217323
#	233561
#	254874
#	276972
#	301290
#
# Disc length: 4271 seconds
#
# Revision: 0
# Processed by: cddbd v1.5.2PL0 Copyright (c) Steve Scherf et al.
# Submitted via: EasyCDDAExtractor 15.2.0.1
#
DISCID=fd10ad10
DTITLE=Maryla Rodowicz - Antologia 3
DYEAR=1996
DGENRE=Folk-Rock
TTITLE0=Remedium
TTITLE1=Hej, żaglujże żeglarzu
TTITLE2=Pejzaż horyzontalny
TTITLE3=Wariatka tańczy
TTITLE4=Cyrk nocą
TTITLE5=Wielka woda
TTITLE6=Gołębi song
TTITLE7=Rozmowa przez ocean
TTITLE8=Niech żyje bal
TTITLE9=Polska madonna
TTITLE10=Zostały Ci
TTITLE11=Człowiek, człowiek
TTITLE12=W szergu
TTITLE13=Dobranoc panowie
TTITLE14=Tango na głos i orkiestrę
TTITLE15=To już było
EXTD=
EXTT0=
EXTT1=
EXTT2=
EXTT3=
EXTT4=
EXTT5=
EXTT6=
EXTT7=
EXTT8=
EXTT9=
EXTT10=
EXTT11=
EXTT12=
EXTT13=
EXTT14=
EXTT15=
PLAYORDER=
